<svg width="68" height="67" viewBox="0 0 68 67" fill="none" xmlns="http://www.w3.org/2000/svg">
<g filter="url(#filter0_d_10_50)">
<ellipse cx="34" cy="29.5" rx="30" ry="29.5" fill="white"/>
<path opacity="0.9" fill-rule="evenodd" clip-rule="evenodd" d="M60.6896 30.3071C60.6896 43.8381 49.3423 54.8071 35.3448 54.8071C34.5958 54.8071 33.8545 54.7757 33.122 54.7142C33.7344 54.6643 34.4009 54.6027 35.0727 54.5405C36.9823 54.3639 38.9346 54.1833 39.8084 54.2581C39.8084 51.7151 39.8084 47.1645 41.0334 46.6291C41.4403 46.4513 42.1329 46.4885 42.9313 46.5314H42.9313C44.5368 46.6177 46.57 46.7269 47.5668 45.1568C48.2361 44.1026 48.3617 43.0639 48.4378 42.4347C48.4641 42.2167 48.4845 42.0479 48.5195 41.9446C48.5715 41.7912 48.6235 41.6964 48.6679 41.6155C48.7398 41.4845 48.7918 41.3897 48.7918 41.1416C48.7918 40.8922 48.4769 40.7191 48.3034 40.6237C48.1974 40.5654 48.1441 40.5361 48.2473 40.5361C49.0606 40.2886 48.9627 40.0019 48.8044 39.5381L48.8044 39.538C48.7507 39.3808 48.6901 39.2033 48.6557 39.0001C48.5195 38.197 48.6557 36.7885 48.6557 36.7885C48.6557 36.7885 51.2418 36.6547 51.3779 35.4501C51.4241 35.0412 50.9212 34.4471 50.2793 33.6888C49.0306 32.2136 47.2559 30.1171 47.9751 27.5534C48.7388 24.8311 47.2261 19.444 42.1222 16.6538V17.5853H37.4944V15.113C36.2954 14.9212 34.9819 14.8443 33.5473 14.9084C30.5906 15.0406 28.2228 15.5844 26.3332 16.4172V17.5853H24.2333C22.7174 18.6366 21.6353 19.9268 20.876 21.3329H23.8834V25.8835H19.4399C19.3086 26.8103 19.2557 27.7333 19.2557 28.6241C19.2557 33.2296 22.1649 37.7316 24.4326 41.2408L24.4328 41.241C24.6175 41.5269 24.798 41.8062 24.9723 42.0785C24.9723 42.1953 24.9744 42.3518 24.9769 42.5419C25.0016 44.4066 25.0691 49.5035 23.6442 52.0457C15.5359 47.9593 9.99994 39.7582 9.99994 30.3071C9.99994 16.7762 21.3472 5.80713 35.3448 5.80713C40.8002 5.80713 45.8531 7.47332 49.9885 10.308V13.4293H53.7165C58.0377 17.8233 60.6896 23.7659 60.6896 30.3071ZM28.7834 21.8682H33.4111V26.4189H28.7834V21.8682ZM36.6778 18.3883H34.2278V21.0652H36.6778V18.3883ZM23.8835 27.7573H26.6057V30.4342H23.8835V27.7573Z" fill="url(#paint0_linear_10_50)"/>
<rect x="49.7444" y="9.01935" width="2.99444" height="2.67685" fill="#3814F8"/>
<rect x="54.9166" y="6.07483" width="4.08333" height="4.28296" fill="#93BBFB"/>
<rect x="50.5611" y="3.93335" width="2.72222" height="2.67685" fill="#407DF9"/>
</g>
<defs>
<filter id="filter0_d_10_50" x="0" y="0" width="68" height="67" filterUnits="userSpaceOnUse" color-interpolation-filters="sRGB">
<feFlood flood-opacity="0" result="BackgroundImageFix"/>
<feColorMatrix in="SourceAlpha" type="matrix" values="0 0 0 0 0 0 0 0 0 0 0 0 0 0 0 0 0 0 127 0" result="hardAlpha"/>
<feOffset dy="4"/>
<feGaussianBlur stdDeviation="2"/>
<feComposite in2="hardAlpha" operator="out"/>
<feColorMatrix type="matrix" values="0 0 0 0 0 0 0 0 0 0 0 0 0 0 0 0 0 0 0.25 0"/>
<feBlend mode="normal" in2="BackgroundImageFix" result="effect1_dropShadow_10_50"/>
<feBlend mode="normal" in="SourceGraphic" in2="effect1_dropShadow_10_50" result="shape"/>
</filter>
<linearGradient id="paint0_linear_10_50" x1="35.3448" y1="5.80713" x2="35.3448" y2="55.3909" gradientUnits="userSpaceOnUse">
<stop offset="0.223858" stop-color="#3814F8"/>
<stop offset="0.223958" stop-color="#407DF9"/>
<stop offset="0.432292" stop-color="#407DF9"/>
<stop offset="0.432392" stop-color="#93BBFB"/>
<stop offset="0.681677" stop-color="#93BBFB"/>
<stop offset="0.68807" stop-color="#CCDFFB"/>
</linearGradient>
</defs>
</svg>
