<svg width="69" height="68" viewBox="0 0 69 68" fill="none" xmlns="http://www.w3.org/2000/svg">
<g filter="url(#filter0_d_27_12)">
<circle cx="34.625" cy="30" r="30" fill="white"/>
<path opacity="0.9" fill-rule="evenodd" clip-rule="evenodd" d="M24.489 52.4827C25.6867 49.787 25.6251 45.0558 25.6017 43.263C25.5992 43.0696 25.5971 42.9104 25.5971 42.7917C25.423 42.5151 25.2428 42.2315 25.0582 41.9411L25.0574 41.9398C22.7898 38.3712 19.8805 33.7928 19.8805 29.1093C19.8805 28.2033 19.9334 27.2647 20.0648 26.3222H24.5082V21.6944H21.5008C22.2601 20.2646 23.3422 18.9525 24.8581 17.8833H26.9583V16.6953C28.8478 15.8485 31.2156 15.2955 34.1721 15.1611C35.6068 15.0959 36.9204 15.1742 38.1195 15.3693V17.8833H42.7473V16.9363C47.851 19.7738 49.3636 25.2521 48.5999 28.0204C47.8807 30.6276 49.6554 32.7596 50.9042 34.2598C51.546 35.0309 52.0489 35.6351 52.0027 36.051C51.8666 37.276 49.2805 37.4121 49.2805 37.4121C49.2805 37.4121 49.1444 38.8444 49.2805 39.6611C49.3149 39.8678 49.3755 40.0483 49.4292 40.2082L49.4292 40.2082C49.5876 40.6799 49.6854 40.9714 48.8721 41.2232C48.7689 41.2232 48.8222 41.253 48.9282 41.3122C49.1017 41.4093 49.4166 41.5853 49.4166 41.8389C49.4166 42.0912 49.3646 42.1876 49.2927 42.3208C49.2483 42.4032 49.1964 42.4996 49.1444 42.6555C49.1093 42.7606 49.0889 42.9323 49.0626 43.154C48.9865 43.7938 48.8609 44.8501 48.1916 45.9222C47.1948 47.5189 45.1616 47.4078 43.5561 47.3201C42.7577 47.2765 42.0651 47.2386 41.6582 47.4194C40.5583 47.9083 40.446 51.6896 40.4345 54.3287C51.4128 51.903 59.625 42.1133 59.625 30.4056C59.625 23.8643 57.0615 17.9218 52.8843 13.5278H49.2807V10.4065C45.2831 7.5718 40.3986 5.90558 35.125 5.90558C21.594 5.90558 10.625 16.8746 10.625 30.4056C10.625 40.1253 16.2851 48.5231 24.489 52.4827ZM29.4085 22.2389H34.0363V26.8666H29.4085V22.2389ZM37.3028 18.7H34.8528V21.4222H37.3028V18.7ZM24.5084 28.2278H27.2306V30.95H24.5084V28.2278Z" fill="url(#paint0_linear_27_12)"/>
<rect x="50.3696" y="9.17224" width="2.99444" height="2.72222" fill="#3814F8"/>
<rect x="55.5416" y="6.1778" width="4.08333" height="4.35556" fill="#93BBFB"/>
<rect x="51.186" y="4" width="2.72222" height="2.72222" fill="#407DF9"/>
</g>
<defs>
<filter id="filter0_d_27_12" x="0.625" y="0" width="68" height="68" filterUnits="userSpaceOnUse" color-interpolation-filters="sRGB">
<feFlood flood-opacity="0" result="BackgroundImageFix"/>
<feColorMatrix in="SourceAlpha" type="matrix" values="0 0 0 0 0 0 0 0 0 0 0 0 0 0 0 0 0 0 127 0" result="hardAlpha"/>
<feOffset dy="4"/>
<feGaussianBlur stdDeviation="2"/>
<feComposite in2="hardAlpha" operator="out"/>
<feColorMatrix type="matrix" values="0 0 0 0 0 0 0 0 0 0 0 0 0 0 0 0 0 0 0.25 0"/>
<feBlend mode="normal" in2="BackgroundImageFix" result="effect1_dropShadow_27_12"/>
<feBlend mode="normal" in="SourceGraphic" in2="effect1_dropShadow_27_12" result="shape"/>
</filter>
<linearGradient id="paint0_linear_27_12" x1="35.125" y1="5.90558" x2="35.125" y2="54.9056" gradientUnits="userSpaceOnUse">
<stop offset="0.223858" stop-color="#3814F8"/>
<stop offset="0.223958" stop-color="#407DF9"/>
<stop offset="0.432292" stop-color="#407DF9"/>
<stop offset="0.432392" stop-color="#93BBFB"/>
<stop offset="0.681677" stop-color="#93BBFB"/>
<stop offset="0.68807" stop-color="#CCDFFB"/>
</linearGradient>
</defs>
</svg>
