<svg width="69" height="68" viewBox="0 0 69 68" fill="none" xmlns="http://www.w3.org/2000/svg">
<g filter="url(#filter0_d_29_85)">
<circle cx="34.625" cy="30" r="30" fill="white"/>
<path opacity="0.9" fill-rule="evenodd" clip-rule="evenodd" d="M24.4885 52.4825C25.6861 49.7868 25.6245 45.0558 25.6011 43.263C25.5986 43.0696 25.5965 42.9104 25.5965 42.7917C25.4223 42.515 25.242 42.2311 25.0573 41.9406L25.0569 41.9398C22.7892 38.3712 19.8799 33.7928 19.8799 29.1093C19.8799 28.2033 19.9328 27.2647 20.0642 26.3222H24.5077V21.6945H21.5002C22.2595 20.2646 23.3416 18.9525 24.8575 17.8834H26.9581V16.6951C28.8476 15.8484 31.2152 15.2955 34.1716 15.1611C35.6061 15.0959 36.9196 15.1741 38.1187 15.3692V17.8834H42.7464V16.9361C47.8503 19.7736 49.363 25.252 48.5993 28.0204C47.8801 30.6276 49.6548 32.7596 50.9036 34.2598C51.5454 35.0309 52.0483 35.6351 52.0021 36.051C51.866 37.276 49.2799 37.4121 49.2799 37.4121C49.2799 37.4121 49.1438 38.8444 49.2799 39.6611C49.3143 39.8678 49.3749 40.0484 49.4286 40.2082C49.587 40.6799 49.6848 40.9714 48.8716 41.2232C48.7683 41.2232 48.8216 41.253 48.9276 41.3122C49.1012 41.4093 49.416 41.5853 49.416 41.8389C49.416 42.0912 49.364 42.1876 49.2922 42.3208C49.2478 42.4032 49.1958 42.4996 49.1438 42.6555C49.1088 42.7606 49.0883 42.9323 49.062 43.154C48.9859 43.7938 48.8603 44.8501 48.191 45.9222C47.1942 47.5189 45.1611 47.4078 43.5555 47.3201C42.7572 47.2765 42.0645 47.2386 41.6577 47.4194C40.5577 47.9083 40.4454 51.6897 40.434 54.3288C51.4126 51.9034 59.625 42.1135 59.625 30.4056C59.625 23.8643 57.0615 17.9218 52.8843 13.5278H49.2803V10.4062C45.2828 7.57169 40.3985 5.90558 35.125 5.90558C21.594 5.90558 10.625 16.8746 10.625 30.4056C10.625 40.1252 16.2848 48.5228 24.4885 52.4825ZM29.4076 22.2389H34.0354V26.8667H29.4076V22.2389ZM37.3023 18.7H34.8523V21.4222H37.3023V18.7ZM24.508 28.2278H27.2302V30.95H24.508V28.2278Z" fill="url(#paint0_linear_29_85)"/>
<rect x="50.3696" y="9.17224" width="2.99444" height="2.72222" fill="#3814F8"/>
<rect x="55.5415" y="6.1778" width="4.08333" height="4.35556" fill="#93BBFB"/>
<rect x="51.186" y="4" width="2.72222" height="2.72222" fill="#407DF9"/>
</g>
<defs>
<filter id="filter0_d_29_85" x="0.625" y="0" width="68" height="68" filterUnits="userSpaceOnUse" color-interpolation-filters="sRGB">
<feFlood flood-opacity="0" result="BackgroundImageFix"/>
<feColorMatrix in="SourceAlpha" type="matrix" values="0 0 0 0 0 0 0 0 0 0 0 0 0 0 0 0 0 0 127 0" result="hardAlpha"/>
<feOffset dy="4"/>
<feGaussianBlur stdDeviation="2"/>
<feComposite in2="hardAlpha" operator="out"/>
<feColorMatrix type="matrix" values="0 0 0 0 0 0 0 0 0 0 0 0 0 0 0 0 0 0 0.25 0"/>
<feBlend mode="normal" in2="BackgroundImageFix" result="effect1_dropShadow_29_85"/>
<feBlend mode="normal" in="SourceGraphic" in2="effect1_dropShadow_29_85" result="shape"/>
</filter>
<linearGradient id="paint0_linear_29_85" x1="35.125" y1="5.90558" x2="35.125" y2="54.9056" gradientUnits="userSpaceOnUse">
<stop offset="0.223858" stop-color="#3814F8"/>
<stop offset="0.223958" stop-color="#407DF9"/>
<stop offset="0.432292" stop-color="#407DF9"/>
<stop offset="0.432392" stop-color="#93BBFB"/>
<stop offset="0.681677" stop-color="#93BBFB"/>
<stop offset="0.68807" stop-color="#CCDFFB"/>
</linearGradient>
</defs>
</svg>
